<mxfile host="65bd71144e">
    <diagram id="eonuVI6e9_lfqIxwHtAF" name="Page-1">
        <mxGraphModel dx="1548" dy="1586" grid="1" gridSize="10" guides="1" tooltips="1" connect="1" arrows="1" fold="1" page="1" pageScale="1" pageWidth="850" pageHeight="1100" math="0" shadow="0">
            <root>
                <mxCell id="0"/>
                <mxCell id="1" parent="0"/>
                <mxCell id="oW09htYuWd6ovNzYBB8p-22" value="Edge" style="swimlane;whiteSpace=wrap;html=1;fillColor=#f5f5f5;fontColor=#333333;strokeColor=#666666;" parent="1" vertex="1">
                    <mxGeometry y="-340" width="1160" height="180" as="geometry"/>
                </mxCell>
                <mxCell id="oW09htYuWd6ovNzYBB8p-23" value="Kubernetes cluster" style="swimlane;whiteSpace=wrap;html=1;fillColor=#1ba1e2;strokeColor=#006EAF;fontColor=#ffffff;" parent="1" vertex="1">
                    <mxGeometry y="-130" width="1830" height="1130" as="geometry"/>
                </mxCell>
                <mxCell id="oW09htYuWd6ovNzYBB8p-10" style="edgeStyle=orthogonalEdgeStyle;rounded=0;orthogonalLoop=1;jettySize=auto;html=1;exitX=0.5;exitY=1;exitDx=0;exitDy=0;entryX=0.5;entryY=0;entryDx=0;entryDy=0;" parent="oW09htYuWd6ovNzYBB8p-23" source="oW09htYuWd6ovNzYBB8p-1" target="oW09htYuWd6ovNzYBB8p-7" edge="1">
                    <mxGeometry relative="1" as="geometry"/>
                </mxCell>
                <mxCell id="oW09htYuWd6ovNzYBB8p-11" style="edgeStyle=orthogonalEdgeStyle;rounded=0;orthogonalLoop=1;jettySize=auto;html=1;exitX=0.5;exitY=1;exitDx=0;exitDy=0;entryX=0.5;entryY=0;entryDx=0;entryDy=0;" parent="oW09htYuWd6ovNzYBB8p-23" source="oW09htYuWd6ovNzYBB8p-1" target="oW09htYuWd6ovNzYBB8p-9" edge="1">
                    <mxGeometry relative="1" as="geometry"/>
                </mxCell>
                <mxCell id="oW09htYuWd6ovNzYBB8p-3" value="User / Account &amp;amp; Group service" style="swimlane;whiteSpace=wrap;html=1;fillColor=#6a00ff;strokeColor=#3700CC;fontColor=#ffffff;" parent="oW09htYuWd6ovNzYBB8p-23" vertex="1">
                    <mxGeometry x="240" y="410" width="440" height="680" as="geometry"/>
                </mxCell>
                <mxCell id="oW09htYuWd6ovNzYBB8p-8" value="Chat service" style="swimlane;whiteSpace=wrap;html=1;fillColor=#60a917;strokeColor=#2D7600;fontColor=#ffffff;" parent="oW09htYuWd6ovNzYBB8p-23" vertex="1">
                    <mxGeometry x="720" y="410" width="440" height="680" as="geometry"/>
                </mxCell>
                <mxCell id="oW09htYuWd6ovNzYBB8p-16" style="edgeStyle=orthogonalEdgeStyle;rounded=0;orthogonalLoop=1;jettySize=auto;html=1;exitX=0.5;exitY=1;exitDx=0;exitDy=0;entryX=0.5;entryY=0;entryDx=0;entryDy=0;" parent="oW09htYuWd6ovNzYBB8p-23" source="oW09htYuWd6ovNzYBB8p-15" target="oW09htYuWd6ovNzYBB8p-13" edge="1">
                    <mxGeometry relative="1" as="geometry">
                        <Array as="points">
                            <mxPoint x="700" y="40"/>
                            <mxPoint x="460" y="40"/>
                        </Array>
                    </mxGeometry>
                </mxCell>
                <mxCell id="oW09htYuWd6ovNzYBB8p-20" value="DMZ / Ingress level" style="swimlane;whiteSpace=wrap;html=1;fillColor=#d80073;strokeColor=#A50040;fontColor=#ffffff;" parent="oW09htYuWd6ovNzYBB8p-23" vertex="1">
                    <mxGeometry x="40" y="110" width="1700" height="190" as="geometry"/>
                </mxCell>
                <mxCell id="oW09htYuWd6ovNzYBB8p-1" value="GraphQL Apollo Federation Gateway" style="rounded=0;whiteSpace=wrap;html=1;fillColor=#d80073;strokeColor=#A50040;fontColor=#ffffff;" parent="oW09htYuWd6ovNzYBB8p-20" vertex="1">
                    <mxGeometry x="600" y="100" width="120" height="60" as="geometry"/>
                </mxCell>
                <mxCell id="oW09htYuWd6ovNzYBB8p-12" value="Hydrogen Gateway" style="rounded=0;whiteSpace=wrap;html=1;fillColor=#d80073;strokeColor=#A50040;fontColor=#ffffff;" parent="oW09htYuWd6ovNzYBB8p-20" vertex="1">
                    <mxGeometry x="880" y="100" width="120" height="60" as="geometry"/>
                </mxCell>
                <mxCell id="oW09htYuWd6ovNzYBB8p-14" value="Actor" style="shape=umlActor;verticalLabelPosition=bottom;verticalAlign=top;html=1;outlineConnect=0;fillColor=#f5f5f5;fontColor=#333333;strokeColor=#666666;" parent="oW09htYuWd6ovNzYBB8p-23" vertex="1">
                    <mxGeometry x="320" y="-150" width="30" height="60" as="geometry"/>
                </mxCell>
                <mxCell id="oW09htYuWd6ovNzYBB8p-15" value="App" style="shape=parallelogram;perimeter=parallelogramPerimeter;whiteSpace=wrap;html=1;fixedSize=1;" parent="oW09htYuWd6ovNzYBB8p-23" vertex="1">
                    <mxGeometry x="640" y="-150" width="120" height="60" as="geometry"/>
                </mxCell>
                <mxCell id="oW09htYuWd6ovNzYBB8p-19" style="edgeStyle=orthogonalEdgeStyle;rounded=0;orthogonalLoop=1;jettySize=auto;html=1;exitX=0.5;exitY=0.5;exitDx=0;exitDy=0;exitPerimeter=0;entryX=0;entryY=0.5;entryDx=0;entryDy=0;" parent="oW09htYuWd6ovNzYBB8p-23" source="oW09htYuWd6ovNzYBB8p-14" target="oW09htYuWd6ovNzYBB8p-15" edge="1">
                    <mxGeometry relative="1" as="geometry"/>
                </mxCell>
                <mxCell id="oW09htYuWd6ovNzYBB8p-5" value="MongoDB replicaset" style="swimlane;whiteSpace=wrap;html=1;fillColor=#fa6800;strokeColor=#C73500;fontColor=#000000;" parent="oW09htYuWd6ovNzYBB8p-23" vertex="1">
                    <mxGeometry x="270" y="860" width="1450" height="190" as="geometry"/>
                </mxCell>
                <mxCell id="oW09htYuWd6ovNzYBB8p-4" value="MongoDB database" style="shape=cylinder3;whiteSpace=wrap;html=1;boundedLbl=1;backgroundOutline=1;size=15;fillColor=#fa6800;strokeColor=#C73500;fontColor=#000000;" parent="oW09htYuWd6ovNzYBB8p-5" vertex="1">
                    <mxGeometry x="90" y="70" width="60" height="80" as="geometry"/>
                </mxCell>
                <mxCell id="oW09htYuWd6ovNzYBB8p-24" value="MongoDB database" style="shape=cylinder3;whiteSpace=wrap;html=1;boundedLbl=1;backgroundOutline=1;size=15;fillColor=#fa6800;strokeColor=#C73500;fontColor=#000000;" parent="oW09htYuWd6ovNzYBB8p-5" vertex="1">
                    <mxGeometry x="580" y="70" width="60" height="80" as="geometry"/>
                </mxCell>
                <mxCell id="oW09htYuWd6ovNzYBB8p-54" style="edgeStyle=orthogonalEdgeStyle;rounded=0;orthogonalLoop=1;jettySize=auto;html=1;exitX=0.25;exitY=1;exitDx=0;exitDy=0;entryX=1;entryY=0.5;entryDx=0;entryDy=0;startArrow=none;startFill=0;" parent="oW09htYuWd6ovNzYBB8p-23" source="oW09htYuWd6ovNzYBB8p-25" target="oW09htYuWd6ovNzYBB8p-51" edge="1">
                    <mxGeometry relative="1" as="geometry"/>
                </mxCell>
                <mxCell id="oW09htYuWd6ovNzYBB8p-25" value="Hydrogen Authorizer" style="rounded=0;whiteSpace=wrap;html=1;fillColor=#6a00ff;strokeColor=#3700CC;fontColor=#ffffff;" parent="oW09htYuWd6ovNzYBB8p-23" vertex="1">
                    <mxGeometry x="540" y="490" width="120" height="60" as="geometry"/>
                </mxCell>
                <mxCell id="oW09htYuWd6ovNzYBB8p-17" style="edgeStyle=orthogonalEdgeStyle;rounded=0;orthogonalLoop=1;jettySize=auto;html=1;exitX=0.5;exitY=1;exitDx=0;exitDy=0;entryX=0.5;entryY=0;entryDx=0;entryDy=0;" parent="oW09htYuWd6ovNzYBB8p-23" source="oW09htYuWd6ovNzYBB8p-15" target="oW09htYuWd6ovNzYBB8p-1" edge="1">
                    <mxGeometry relative="1" as="geometry"/>
                </mxCell>
                <mxCell id="oW09htYuWd6ovNzYBB8p-32" style="edgeStyle=orthogonalEdgeStyle;rounded=0;orthogonalLoop=1;jettySize=auto;html=1;exitX=0.5;exitY=1;exitDx=0;exitDy=0;entryX=0.5;entryY=0;entryDx=0;entryDy=0;entryPerimeter=0;startArrow=classic;startFill=1;" parent="oW09htYuWd6ovNzYBB8p-23" source="oW09htYuWd6ovNzYBB8p-13" target="oW09htYuWd6ovNzYBB8p-4" edge="1">
                    <mxGeometry relative="1" as="geometry"/>
                </mxCell>
                <mxCell id="oW09htYuWd6ovNzYBB8p-18" style="edgeStyle=orthogonalEdgeStyle;rounded=0;orthogonalLoop=1;jettySize=auto;html=1;exitX=0.5;exitY=1;exitDx=0;exitDy=0;entryX=0.5;entryY=0;entryDx=0;entryDy=0;" parent="oW09htYuWd6ovNzYBB8p-23" source="oW09htYuWd6ovNzYBB8p-15" target="oW09htYuWd6ovNzYBB8p-12" edge="1">
                    <mxGeometry relative="1" as="geometry">
                        <Array as="points">
                            <mxPoint x="700" y="40"/>
                            <mxPoint x="980" y="40"/>
                        </Array>
                    </mxGeometry>
                </mxCell>
                <mxCell id="oW09htYuWd6ovNzYBB8p-53" style="edgeStyle=orthogonalEdgeStyle;rounded=0;orthogonalLoop=1;jettySize=auto;html=1;exitX=0.25;exitY=1;exitDx=0;exitDy=0;entryX=1;entryY=0.5;entryDx=0;entryDy=0;startArrow=none;startFill=0;" parent="oW09htYuWd6ovNzYBB8p-23" source="oW09htYuWd6ovNzYBB8p-13" target="oW09htYuWd6ovNzYBB8p-51" edge="1">
                    <mxGeometry relative="1" as="geometry"/>
                </mxCell>
                <mxCell id="oW09htYuWd6ovNzYBB8p-13" value="Login / Register" style="rounded=0;whiteSpace=wrap;html=1;fillColor=#6a00ff;strokeColor=#3700CC;fontColor=#ffffff;" parent="oW09htYuWd6ovNzYBB8p-23" vertex="1">
                    <mxGeometry x="400" y="490" width="120" height="60" as="geometry"/>
                </mxCell>
                <mxCell id="oW09htYuWd6ovNzYBB8p-30" style="edgeStyle=orthogonalEdgeStyle;rounded=0;orthogonalLoop=1;jettySize=auto;html=1;exitX=0.5;exitY=1;exitDx=0;exitDy=0;entryX=0.5;entryY=0;entryDx=0;entryDy=0;entryPerimeter=0;startArrow=classic;startFill=1;" parent="oW09htYuWd6ovNzYBB8p-23" source="oW09htYuWd6ovNzYBB8p-7" target="oW09htYuWd6ovNzYBB8p-4" edge="1">
                    <mxGeometry relative="1" as="geometry"/>
                </mxCell>
                <mxCell id="oW09htYuWd6ovNzYBB8p-52" style="edgeStyle=orthogonalEdgeStyle;rounded=0;orthogonalLoop=1;jettySize=auto;html=1;exitX=0.25;exitY=1;exitDx=0;exitDy=0;entryX=1;entryY=0.5;entryDx=0;entryDy=0;startArrow=none;startFill=0;" parent="oW09htYuWd6ovNzYBB8p-23" source="oW09htYuWd6ovNzYBB8p-7" target="oW09htYuWd6ovNzYBB8p-51" edge="1">
                    <mxGeometry relative="1" as="geometry"/>
                </mxCell>
                <mxCell id="oW09htYuWd6ovNzYBB8p-7" value="GraphQL service" style="rounded=0;whiteSpace=wrap;html=1;fillColor=#6a00ff;strokeColor=#3700CC;fontColor=#ffffff;" parent="oW09htYuWd6ovNzYBB8p-23" vertex="1">
                    <mxGeometry x="260" y="490" width="120" height="60" as="geometry"/>
                </mxCell>
                <mxCell id="oW09htYuWd6ovNzYBB8p-43" style="edgeStyle=orthogonalEdgeStyle;rounded=0;orthogonalLoop=1;jettySize=auto;html=1;exitX=0.75;exitY=1;exitDx=0;exitDy=0;entryX=0;entryY=0.5;entryDx=0;entryDy=0;entryPerimeter=0;startArrow=none;startFill=0;" parent="oW09htYuWd6ovNzYBB8p-23" source="oW09htYuWd6ovNzYBB8p-27" target="oW09htYuWd6ovNzYBB8p-39" edge="1">
                    <mxGeometry relative="1" as="geometry"/>
                </mxCell>
                <mxCell id="oW09htYuWd6ovNzYBB8p-48" value="publish message" style="edgeLabel;html=1;align=center;verticalAlign=middle;resizable=0;points=[];" parent="oW09htYuWd6ovNzYBB8p-43" vertex="1" connectable="0">
                    <mxGeometry x="0.365" relative="1" as="geometry">
                        <mxPoint as="offset"/>
                    </mxGeometry>
                </mxCell>
                <mxCell id="oW09htYuWd6ovNzYBB8p-27" value="Hydrogen downstream service" style="rounded=0;whiteSpace=wrap;html=1;fillColor=#60a917;strokeColor=#2D7600;fontColor=#ffffff;" parent="oW09htYuWd6ovNzYBB8p-23" vertex="1">
                    <mxGeometry x="880" y="490" width="120" height="60" as="geometry"/>
                </mxCell>
                <mxCell id="oW09htYuWd6ovNzYBB8p-33" style="edgeStyle=orthogonalEdgeStyle;rounded=0;orthogonalLoop=1;jettySize=auto;html=1;exitX=0.5;exitY=1;exitDx=0;exitDy=0;startArrow=classic;startFill=1;entryX=0.5;entryY=0;entryDx=0;entryDy=0;entryPerimeter=0;" parent="oW09htYuWd6ovNzYBB8p-23" source="oW09htYuWd6ovNzYBB8p-25" target="oW09htYuWd6ovNzYBB8p-4" edge="1">
                    <mxGeometry relative="1" as="geometry">
                        <mxPoint x="400" y="840" as="targetPoint"/>
                    </mxGeometry>
                </mxCell>
                <mxCell id="oW09htYuWd6ovNzYBB8p-35" style="edgeStyle=orthogonalEdgeStyle;rounded=0;orthogonalLoop=1;jettySize=auto;html=1;exitX=0.5;exitY=1;exitDx=0;exitDy=0;startArrow=classic;startFill=1;entryX=0.5;entryY=0;entryDx=0;entryDy=0;entryPerimeter=0;" parent="oW09htYuWd6ovNzYBB8p-23" source="oW09htYuWd6ovNzYBB8p-27" target="oW09htYuWd6ovNzYBB8p-24" edge="1">
                    <mxGeometry relative="1" as="geometry">
                        <mxPoint x="870" y="840" as="targetPoint"/>
                    </mxGeometry>
                </mxCell>
                <mxCell id="oW09htYuWd6ovNzYBB8p-44" style="edgeStyle=orthogonalEdgeStyle;rounded=0;orthogonalLoop=1;jettySize=auto;html=1;exitX=0;exitY=0;exitDx=0;exitDy=27.5;exitPerimeter=0;entryX=0.5;entryY=1;entryDx=0;entryDy=0;startArrow=none;startFill=0;" parent="oW09htYuWd6ovNzYBB8p-23" source="oW09htYuWd6ovNzYBB8p-39" target="oW09htYuWd6ovNzYBB8p-40" edge="1">
                    <mxGeometry relative="1" as="geometry"/>
                </mxCell>
                <mxCell id="oW09htYuWd6ovNzYBB8p-47" value="sub on topic" style="edgeLabel;html=1;align=center;verticalAlign=middle;resizable=0;points=[];" parent="oW09htYuWd6ovNzYBB8p-44" vertex="1" connectable="0">
                    <mxGeometry x="-0.3252" y="-2" relative="1" as="geometry">
                        <mxPoint x="7" y="-6" as="offset"/>
                    </mxGeometry>
                </mxCell>
                <mxCell id="oW09htYuWd6ovNzYBB8p-39" value="Redis" style="shape=cylinder3;whiteSpace=wrap;html=1;boundedLbl=1;backgroundOutline=1;size=15;fillColor=#008a00;strokeColor=#005700;fontColor=#ffffff;" parent="oW09htYuWd6ovNzYBB8p-23" vertex="1">
                    <mxGeometry x="1200" y="630" width="60" height="180" as="geometry"/>
                </mxCell>
                <mxCell id="oW09htYuWd6ovNzYBB8p-40" value="Message broker" style="rounded=0;whiteSpace=wrap;html=1;fillColor=#60a917;strokeColor=#2D7600;fontColor=#ffffff;" parent="oW09htYuWd6ovNzYBB8p-23" vertex="1">
                    <mxGeometry x="1020" y="490" width="120" height="60" as="geometry"/>
                </mxCell>
                <mxCell id="oW09htYuWd6ovNzYBB8p-9" value="GraphQL service" style="rounded=0;whiteSpace=wrap;html=1;fillColor=#60a917;strokeColor=#2D7600;fontColor=#ffffff;" parent="oW09htYuWd6ovNzYBB8p-23" vertex="1">
                    <mxGeometry x="740" y="490" width="120" height="60" as="geometry"/>
                </mxCell>
                <mxCell id="oW09htYuWd6ovNzYBB8p-34" style="edgeStyle=orthogonalEdgeStyle;rounded=0;orthogonalLoop=1;jettySize=auto;html=1;exitX=0.5;exitY=1;exitDx=0;exitDy=0;entryX=0.5;entryY=0;entryDx=0;entryDy=0;entryPerimeter=0;startArrow=classic;startFill=1;" parent="oW09htYuWd6ovNzYBB8p-23" source="oW09htYuWd6ovNzYBB8p-9" target="oW09htYuWd6ovNzYBB8p-24" edge="1">
                    <mxGeometry relative="1" as="geometry"/>
                </mxCell>
                <mxCell id="oW09htYuWd6ovNzYBB8p-26" style="edgeStyle=orthogonalEdgeStyle;rounded=0;orthogonalLoop=1;jettySize=auto;html=1;exitX=0.5;exitY=1;exitDx=0;exitDy=0;entryX=0.5;entryY=0;entryDx=0;entryDy=0;" parent="oW09htYuWd6ovNzYBB8p-23" source="oW09htYuWd6ovNzYBB8p-12" target="oW09htYuWd6ovNzYBB8p-25" edge="1">
                    <mxGeometry relative="1" as="geometry">
                        <Array as="points">
                            <mxPoint x="980" y="350"/>
                            <mxPoint x="600" y="350"/>
                        </Array>
                    </mxGeometry>
                </mxCell>
                <mxCell id="oW09htYuWd6ovNzYBB8p-29" style="edgeStyle=orthogonalEdgeStyle;rounded=0;orthogonalLoop=1;jettySize=auto;html=1;exitX=0.5;exitY=1;exitDx=0;exitDy=0;entryX=0.5;entryY=0;entryDx=0;entryDy=0;startArrow=none;startFill=0;" parent="oW09htYuWd6ovNzYBB8p-23" source="oW09htYuWd6ovNzYBB8p-12" target="oW09htYuWd6ovNzYBB8p-27" edge="1">
                    <mxGeometry relative="1" as="geometry">
                        <Array as="points">
                            <mxPoint x="980" y="460"/>
                            <mxPoint x="940" y="460"/>
                        </Array>
                    </mxGeometry>
                </mxCell>
                <mxCell id="oW09htYuWd6ovNzYBB8p-42" style="edgeStyle=orthogonalEdgeStyle;rounded=0;orthogonalLoop=1;jettySize=auto;html=1;exitX=0.5;exitY=0;exitDx=0;exitDy=0;entryX=0.75;entryY=1;entryDx=0;entryDy=0;startArrow=none;startFill=0;" parent="oW09htYuWd6ovNzYBB8p-23" source="oW09htYuWd6ovNzYBB8p-40" target="oW09htYuWd6ovNzYBB8p-12" edge="1">
                    <mxGeometry relative="1" as="geometry">
                        <Array as="points">
                            <mxPoint x="1080" y="460"/>
                            <mxPoint x="1010" y="460"/>
                        </Array>
                    </mxGeometry>
                </mxCell>
                <mxCell id="oW09htYuWd6ovNzYBB8p-49" value="sens message" style="edgeLabel;html=1;align=center;verticalAlign=middle;resizable=0;points=[];" parent="oW09htYuWd6ovNzYBB8p-42" vertex="1" connectable="0">
                    <mxGeometry x="0.0756" y="-2" relative="1" as="geometry">
                        <mxPoint x="38" y="46" as="offset"/>
                    </mxGeometry>
                </mxCell>
                <mxCell id="oW09htYuWd6ovNzYBB8p-45" style="edgeStyle=orthogonalEdgeStyle;rounded=0;orthogonalLoop=1;jettySize=auto;html=1;exitX=1;exitY=0.5;exitDx=0;exitDy=0;entryX=0.5;entryY=0;entryDx=0;entryDy=0;entryPerimeter=0;startArrow=none;startFill=0;" parent="oW09htYuWd6ovNzYBB8p-23" source="oW09htYuWd6ovNzYBB8p-12" target="oW09htYuWd6ovNzYBB8p-39" edge="1">
                    <mxGeometry relative="1" as="geometry"/>
                </mxCell>
                <mxCell id="oW09htYuWd6ovNzYBB8p-46" value="hydrogen internal use" style="edgeLabel;html=1;align=center;verticalAlign=middle;resizable=0;points=[];" parent="oW09htYuWd6ovNzYBB8p-45" vertex="1" connectable="0">
                    <mxGeometry x="-0.713" relative="1" as="geometry">
                        <mxPoint as="offset"/>
                    </mxGeometry>
                </mxCell>
                <mxCell id="oW09htYuWd6ovNzYBB8p-51" value="Authentik" style="rounded=0;whiteSpace=wrap;html=1;shadow=0;glass=0;sketch=0;fillColor=#008a00;strokeColor=#005700;fontColor=#ffffff;" parent="oW09htYuWd6ovNzYBB8p-23" vertex="1">
                    <mxGeometry x="120" y="490" width="80" height="320" as="geometry"/>
                </mxCell>
                <mxCell id="oW09htYuWd6ovNzYBB8p-56" value="Event service" style="swimlane;whiteSpace=wrap;html=1;fillColor=#e3c800;strokeColor=#B09500;fontColor=#000000;" parent="oW09htYuWd6ovNzYBB8p-23" vertex="1">
                    <mxGeometry x="1300" y="410" width="440" height="680" as="geometry"/>
                </mxCell>
                <mxCell id="oW09htYuWd6ovNzYBB8p-59" style="edgeStyle=orthogonalEdgeStyle;rounded=0;orthogonalLoop=1;jettySize=auto;html=1;exitX=0.5;exitY=1;exitDx=0;exitDy=0;entryX=0.5;entryY=0;entryDx=0;entryDy=0;entryPerimeter=0;startArrow=none;startFill=0;" parent="oW09htYuWd6ovNzYBB8p-56" source="oW09htYuWd6ovNzYBB8p-57" target="oW09htYuWd6ovNzYBB8p-58" edge="1">
                    <mxGeometry relative="1" as="geometry"/>
                </mxCell>
                <mxCell id="oW09htYuWd6ovNzYBB8p-57" value="GraphQL service" style="rounded=0;whiteSpace=wrap;html=1;fillColor=#e3c800;strokeColor=#B09500;fontColor=#000000;" parent="oW09htYuWd6ovNzYBB8p-56" vertex="1">
                    <mxGeometry x="60" y="80" width="120" height="60" as="geometry"/>
                </mxCell>
                <mxCell id="oW09htYuWd6ovNzYBB8p-58" value="MongoDB database" style="shape=cylinder3;whiteSpace=wrap;html=1;boundedLbl=1;backgroundOutline=1;size=15;fillColor=#fa6800;strokeColor=#C73500;fontColor=#000000;" parent="oW09htYuWd6ovNzYBB8p-56" vertex="1">
                    <mxGeometry x="140" y="520" width="60" height="80" as="geometry"/>
                </mxCell>
                <mxCell id="oW09htYuWd6ovNzYBB8p-60" style="edgeStyle=orthogonalEdgeStyle;rounded=0;orthogonalLoop=1;jettySize=auto;html=1;exitX=0.5;exitY=1;exitDx=0;exitDy=0;entryX=0.5;entryY=0;entryDx=0;entryDy=0;startArrow=none;startFill=0;" parent="oW09htYuWd6ovNzYBB8p-23" source="oW09htYuWd6ovNzYBB8p-1" target="oW09htYuWd6ovNzYBB8p-57" edge="1">
                    <mxGeometry relative="1" as="geometry"/>
                </mxCell>
                <mxCell id="34" value="Event" style="rounded=1;whiteSpace=wrap;html=1;" vertex="1" parent="1">
                    <mxGeometry x="440" y="-1000" width="120" height="60" as="geometry"/>
                </mxCell>
                <mxCell id="35" value="Account" style="rounded=1;whiteSpace=wrap;html=1;" vertex="1" parent="1">
                    <mxGeometry x="40" y="-1000" width="120" height="60" as="geometry"/>
                </mxCell>
                <mxCell id="38" style="edgeStyle=none;html=1;exitX=0;exitY=0.5;exitDx=0;exitDy=0;entryX=1;entryY=0.5;entryDx=0;entryDy=0;" edge="1" parent="1" source="36" target="35">
                    <mxGeometry relative="1" as="geometry"/>
                </mxCell>
                <mxCell id="39" style="edgeStyle=none;html=1;exitX=1;exitY=0.5;exitDx=0;exitDy=0;entryX=0;entryY=0.5;entryDx=0;entryDy=0;" edge="1" parent="1" source="36" target="34">
                    <mxGeometry relative="1" as="geometry"/>
                </mxCell>
                <mxCell id="36" value="Participation" style="rounded=1;whiteSpace=wrap;html=1;" vertex="1" parent="1">
                    <mxGeometry x="240" y="-1000" width="120" height="60" as="geometry"/>
                </mxCell>
            </root>
        </mxGraphModel>
    </diagram>
</mxfile>